# xmcd
#
# Track frame offsets:
# 150
# 14858
# 26611
# 44763
# 59843
# 74003
# 87938
# 99978
# 114231
# 129107
# 142662
# 158447
# 169591
# 184223
# 198438
# 212113
#
# Disc length: 3011 seconds
#
#
# Revision: 1
# Processed by: cddbd v1.5.1PL2 Copyright (c) Steve Scherf et al.
# Submitted via: FreeRIP 2.945 
#
DISCID=e00bc110
DTITLE=Various Artist - Big Band Favorites cd3
DYEAR=1999
DGENRE=Jazz
TTITLE0=muskat ramble - lionel hampton
TTITLE1=got a date with an angel - hal kemp
TTITLE2=stop,look and kisten - the dorsey brothers
TTITLE3=moonlight serenade - glenn miller
TTITLE4=king porter stomp - benny goodman
TTITLE5=i got rythm - jimmy dorsey
TTITLE6=just at five - count basie
TTITLE7=boogie woogie - tommy dorsey
TTITLE8=i got it bad and that ain't good - duke ellington
TTITLE9=bugle call rag - benny goodman
TTITLE10=chattanooga choo choo - glenn miller
TTITLE11=the japanese sandmann - artie shaw
TTITLE12=dixieland shuffle - bob crosby and the bobcats
TTITLE13=the golden wedding - woody hermen
TTITLE14=sentimental gentelman from georgia - isham jones
TTITLE15=don't be that way - teddy wilson
EXTD=
EXTT0=
EXTT1=
EXTT2=
EXTT3=
EXTT4=
EXTT5=
EXTT6=
EXTT7=
EXTT8=
EXTT9=
EXTT10=
EXTT11=
EXTT12=
EXTT13=
EXTT14=
EXTT15=
PLAYORDER=
